<mxfile host="Electron" agent="Mozilla/5.0 (X11; Linux x86_64) AppleWebKit/537.36 (KHTML, like Gecko) draw.io/27.0.9 Chrome/134.0.6998.205 Electron/35.4.0 Safari/537.36" version="27.0.9">
  <diagram name="PÃ¡gina-1" id="w6BqvSiJi_VWZ2xmlC9Y">
    <mxGraphModel dx="260" dy="198" grid="1" gridSize="10" guides="1" tooltips="1" connect="1" arrows="1" fold="1" page="1" pageScale="1" pageWidth="827" pageHeight="1169" math="0" shadow="0">
      <root>
        <mxCell id="0" />
        <mxCell id="1" parent="0" />
        <mxCell id="onJNcobrgZERgnoieEX3-1" value="" style="rounded=1;whiteSpace=wrap;html=1;" vertex="1" parent="1">
          <mxGeometry x="340" y="226" width="155" height="140" as="geometry" />
        </mxCell>
        <mxCell id="onJNcobrgZERgnoieEX3-2" value="Hardware" style="rounded=1;whiteSpace=wrap;html=1;" vertex="1" parent="1">
          <mxGeometry x="350" y="337.25" width="135" height="20" as="geometry" />
        </mxCell>
        <mxCell id="onJNcobrgZERgnoieEX3-26" style="edgeStyle=orthogonalEdgeStyle;rounded=0;orthogonalLoop=1;jettySize=auto;html=1;exitX=0.5;exitY=1;exitDx=0;exitDy=0;dashed=1;endArrow=none;startFill=0;entryX=0.884;entryY=-0.008;entryDx=0;entryDy=0;entryPerimeter=0;" edge="1" parent="1" source="onJNcobrgZERgnoieEX3-4" target="onJNcobrgZERgnoieEX3-2">
          <mxGeometry relative="1" as="geometry">
            <mxPoint x="462" y="330" as="targetPoint" />
            <Array as="points">
              <mxPoint x="418" y="320" />
              <mxPoint x="469" y="320" />
            </Array>
          </mxGeometry>
        </mxCell>
        <mxCell id="onJNcobrgZERgnoieEX3-4" value="VM&lt;sub&gt;0&lt;/sub&gt;" style="rounded=1;whiteSpace=wrap;html=1;" vertex="1" parent="1">
          <mxGeometry x="387.5" y="250" width="60" height="50" as="geometry" />
        </mxCell>
        <mxCell id="onJNcobrgZERgnoieEX3-11" value="seL4" style="text;html=1;align=center;verticalAlign=middle;resizable=0;points=[];autosize=1;strokeColor=none;fillColor=none;" vertex="1" parent="1">
          <mxGeometry x="392.5" y="222" width="50" height="30" as="geometry" />
        </mxCell>
        <mxCell id="onJNcobrgZERgnoieEX3-12" value="&lt;font style=&quot;font-size: 7px;&quot;&gt;e1000e&lt;/font&gt;" style="text;html=1;align=center;verticalAlign=middle;resizable=0;points=[];autosize=1;strokeColor=none;fillColor=none;" vertex="1" parent="1">
          <mxGeometry x="414" y="315" width="50" height="30" as="geometry" />
        </mxCell>
        <mxCell id="onJNcobrgZERgnoieEX3-27" value="" style="rounded=1;whiteSpace=wrap;html=1;" vertex="1" parent="1">
          <mxGeometry x="510" y="226" width="170" height="140" as="geometry" />
        </mxCell>
        <mxCell id="onJNcobrgZERgnoieEX3-28" value="Hardware" style="rounded=1;whiteSpace=wrap;html=1;" vertex="1" parent="1">
          <mxGeometry x="520" y="337.25" width="150" height="20" as="geometry" />
        </mxCell>
        <mxCell id="onJNcobrgZERgnoieEX3-29" style="edgeStyle=orthogonalEdgeStyle;rounded=0;orthogonalLoop=1;jettySize=auto;html=1;exitX=0.5;exitY=1;exitDx=0;exitDy=0;dashed=1;endArrow=none;startFill=0;" edge="1" parent="1" source="onJNcobrgZERgnoieEX3-30" target="onJNcobrgZERgnoieEX3-33">
          <mxGeometry relative="1" as="geometry">
            <Array as="points">
              <mxPoint x="595" y="318" />
              <mxPoint x="550" y="318" />
            </Array>
          </mxGeometry>
        </mxCell>
        <mxCell id="onJNcobrgZERgnoieEX3-30" value="VM&lt;sub&gt;0&lt;/sub&gt;" style="rounded=1;whiteSpace=wrap;html=1;" vertex="1" parent="1">
          <mxGeometry x="565" y="250" width="60" height="50" as="geometry" />
        </mxCell>
        <mxCell id="onJNcobrgZERgnoieEX3-31" value="seL4" style="text;html=1;align=center;verticalAlign=middle;resizable=0;points=[];autosize=1;strokeColor=none;fillColor=none;" vertex="1" parent="1">
          <mxGeometry x="570" y="222" width="50" height="30" as="geometry" />
        </mxCell>
        <mxCell id="onJNcobrgZERgnoieEX3-32" value="&lt;font style=&quot;font-size: 7px;&quot;&gt;e1000e&lt;/font&gt;" style="text;html=1;align=center;verticalAlign=middle;resizable=0;points=[];autosize=1;strokeColor=none;fillColor=none;" vertex="1" parent="1">
          <mxGeometry x="545" y="315" width="50" height="30" as="geometry" />
        </mxCell>
        <mxCell id="onJNcobrgZERgnoieEX3-33" value="" style="html=1;verticalLabelPosition=bottom;verticalAlign=top;outlineConnect=0;shadow=0;dashed=0;shape=mxgraph.rack.hpe_aruba.switches.rj45_sfp;" vertex="1" parent="1">
          <mxGeometry x="538.33" y="338.25" width="23.33" height="17.5" as="geometry" />
        </mxCell>
        <mxCell id="onJNcobrgZERgnoieEX3-34" value="vswitch" style="rounded=1;whiteSpace=wrap;html=1;" vertex="1" parent="1">
          <mxGeometry x="440" y="380" width="130" height="20" as="geometry" />
        </mxCell>
        <mxCell id="onJNcobrgZERgnoieEX3-16" value="" style="html=1;verticalLabelPosition=bottom;verticalAlign=top;outlineConnect=0;shadow=0;dashed=0;shape=mxgraph.rack.hpe_aruba.switches.rj45_sfp;" vertex="1" parent="1">
          <mxGeometry x="450" y="338.25" width="23.33" height="17.5" as="geometry" />
        </mxCell>
      </root>
    </mxGraphModel>
  </diagram>
</mxfile>
